<svg width="117" height="27" viewBox="0 0 117 27" fill="none" xmlns="http://www.w3.org/2000/svg">
<path fill-rule="evenodd" clip-rule="evenodd" d="M100.28 6.40002H112.664H116.488V18.93H102.28V21.608H116.488V26.432H100.28H96.4558V22.608V17.328V15.504V10.224V6.40002H100.28ZM110.664 11.224V14.6H106.472H102.28V11.224H110.664Z" fill="#FCF9F7"/>
<path d="M93.9537 10.6806V26.4H88.0963V12.3359L88.0221 12.256H83.904V13.504V26.4H78.048V13.504V12.256H73.856V13.504V15.232V26.4H68V18.816V13.232V11.504V6.40002H71.856H73.104H74.528H75.952H78.8L81.1838 6.40005L83.152 6.40002H89.6783L93.9537 10.6806Z" fill="#FCF9F7"/>
<path d="M54.7165 6.048V0H48.8285V6.048H45.8525V11.968H48.8285V22.512V26.4H52.7165H64.9565V20.512H54.7165V11.968H58.8501V6.048H54.7165Z" fill="#C13C0B"/>
<path fill-rule="evenodd" clip-rule="evenodd" d="M43.11 6.40005V26.4L25.8555 26.4H23.11V21.0711V8.84518V6.40002L43.11 6.40005ZM37.2594 20.5022H28.9678V12.2469H37.2594V20.5022Z" fill="#C13C0B"/>
<path fill-rule="evenodd" clip-rule="evenodd" d="M20.384 0V26.4H14.496H1.984H0V20.544V6.048H14.496V4.064V0H20.384ZM14.496 20.544H5.984V12H14.496V20.544Z" fill="#C13C0B"/>
</svg>
